<?xml version="1.0" encoding="UTF-8"?>
<svg id="Layer_2" data-name="Layer 2" xmlns="http://www.w3.org/2000/svg" viewBox="0 0 150.7 111.03">
  <defs>
    <style>
      .cls-1 {
        fill: #20065f;
        stroke-width: 0px;
      }
    </style>
  </defs>
  <g id="Layer_1-2" data-name="Layer 1">
    <g>
      <path class="cls-1" d="M24.94,18.84h99.94c-3.21-2.82-6.65-5.38-10.31-7.63H35.25c-3.66,2.25-7.1,4.81-10.31,7.63Z"/>
      <path class="cls-1" d="M15.47,28.81h118.9c-2.12-2.69-4.43-5.22-6.89-7.6H22.35c-2.46,2.37-4.76,4.91-6.89,7.6Z"/>
      <path class="cls-1" d="M110.41,8.82C99.82,3.2,87.74,0,74.91,0s-24.9,3.2-35.49,8.82h70.99Z"/>
      <path class="cls-1" d="M26.98,84.63v-20.74l29.09-21.34,28.74,21.49v18.5l28.47-21.2,28.71,21.45v28.25c5.55-10.53,8.7-22.52,8.7-35.25,0-16.67-5.4-32.07-14.52-44.58H13.65C6.65,40.8,1.86,52.11,0,64.38l26.98,20.25Z"/>
      <g>
        <rect class="cls-1" x="46.21" y="69.74" width="8.54" height="8.54"/>
        <rect class="cls-1" x="57.38" y="69.74" width="8.54" height="8.54"/>
        <rect class="cls-1" x="46.21" y="80.8" width="8.54" height="8.54"/>
        <rect class="cls-1" x="57.38" y="80.8" width="8.54" height="8.54"/>
      </g>
      <g>
        <rect class="cls-1" x="103.43" y="88.17" width="8.54" height="8.54"/>
        <rect class="cls-1" x="114.6" y="88.17" width="8.54" height="8.54"/>
        <rect class="cls-1" x="103.43" y="99.23" width="8.54" height="8.54"/>
        <rect class="cls-1" x="114.6" y="99.23" width="8.54" height="8.54"/>
      </g>
    </g>
  </g>
</svg>